<svg width="36" height="36" viewBox="0 0 36 36" fill="none" xmlns="http://www.w3.org/2000/svg">
<g opacity="0.8">
<path d="M15.267 2.7193C15.611 2.33521 16.032 2.02796 16.5027 1.81761C16.9734 1.60726 17.4832 1.49854 17.9987 1.49854C18.5143 1.49854 19.024 1.60726 19.4947 1.81761C19.9654 2.02796 20.3865 2.33521 20.7304 2.7193L22.0137 4.15297C22.3805 4.56271 22.8347 4.8847 23.3428 5.09511C23.8509 5.30551 24.3998 5.39894 24.9489 5.36847L26.8739 5.26213C27.3888 5.23375 27.9038 5.31429 28.3855 5.49849C28.8671 5.68269 29.3045 5.96641 29.669 6.33113C30.0336 6.69585 30.3171 7.13335 30.5011 7.61508C30.685 8.09681 30.7653 8.61193 30.7367 9.1268L30.6304 11.05C30.6002 11.5987 30.6937 12.1473 30.9041 12.655C31.1145 13.1628 31.4364 13.6167 31.8459 13.9833L33.2795 15.2666C33.6639 15.6106 33.9714 16.0317 34.182 16.5026C34.3925 16.9734 34.5013 17.4834 34.5013 17.9992C34.5013 18.515 34.3925 19.025 34.182 19.4959C33.9714 19.9667 33.6639 20.3879 33.2795 20.7318L31.8459 22.0151C31.4361 22.3819 31.1141 22.8362 30.9037 23.3442C30.6933 23.8523 30.5999 24.4012 30.6304 24.9503L30.7367 26.8753C30.7651 27.3902 30.6846 27.9053 30.5004 28.3869C30.3162 28.8685 30.0324 29.3059 29.6677 29.6705C29.303 30.035 28.8655 30.3185 28.3838 30.5025C27.902 30.6865 27.3869 30.7668 26.872 30.7381L24.9489 30.6318C24.4001 30.6016 23.8516 30.6952 23.3438 30.9056C22.8361 31.116 22.3821 31.4378 22.0155 31.8473L20.7322 33.281C20.3883 33.6654 19.9671 33.9729 19.4963 34.1834C19.0254 34.3939 18.5154 34.5028 17.9996 34.5028C17.4838 34.5028 16.9739 34.3939 16.503 34.1834C16.0321 33.9729 15.611 33.6654 15.267 33.281L13.9837 31.8473C13.6169 31.4376 13.1627 31.1156 12.6546 30.9052C12.1465 30.6948 11.5976 30.6013 11.0485 30.6318L9.12355 30.7381C8.60867 30.7665 8.09359 30.686 7.61194 30.5018C7.1303 30.3176 6.69293 30.0338 6.32839 29.6691C5.96384 29.3044 5.68033 28.8669 5.49635 28.3852C5.31238 27.9035 5.23209 27.3883 5.26071 26.8735L5.36705 24.9503C5.39724 24.4015 5.30368 23.853 5.09328 23.3452C4.88289 22.8375 4.56104 22.3835 4.15155 22.017L2.71788 20.7336C2.33349 20.3897 2.02598 19.9686 1.81545 19.4977C1.60492 19.0268 1.49609 18.5168 1.49609 18.001C1.49609 17.4853 1.60492 16.9753 1.81545 16.5044C2.02598 16.0335 2.33349 15.6124 2.71788 15.2685L4.15155 13.9851C4.56129 13.6184 4.88328 13.1641 5.09369 12.656C5.30409 12.1479 5.39752 11.599 5.36705 11.05L5.26071 9.12497C5.2326 8.61023 5.31334 8.09536 5.49766 7.61393C5.68198 7.13251 5.96574 6.69537 6.33043 6.33103C6.69512 5.96669 7.13253 5.68334 7.61413 5.49947C8.09572 5.31561 8.61067 5.23536 9.12538 5.26397L11.0485 5.3703C11.5973 5.40049 12.1459 5.30693 12.6536 5.09653C13.1613 4.88614 13.6153 4.56429 13.9819 4.1548L15.267 2.7193Z" stroke="black" stroke-width="2"/>
<path d="M13.4141 13.417H13.4324V13.4353H13.4141V13.417ZM22.5807 22.5837H22.5991V22.602H22.5807V22.5837Z" stroke="black" stroke-width="3" stroke-linejoin="round"/>
<path d="M23.5 12.5L12.5 23.5" stroke="black" stroke-width="2" stroke-linecap="round" stroke-linejoin="round"/>
</g>
</svg>
