<svg width="64" height="64" viewBox="0 0 64 64" fill="none" xmlns="http://www.w3.org/2000/svg">
<g opacity="0.8">
<path d="M27.1996 5.14531C27.804 4.47033 28.5439 3.93038 29.3711 3.56072C30.1982 3.19107 31.094 3 32 3C32.906 3 33.8018 3.19107 34.6289 3.56072C35.4561 3.93038 36.196 4.47033 36.8003 5.14531L39.0555 7.66477C39.7001 8.38483 40.4983 8.95068 41.3912 9.32044C42.284 9.69019 43.2486 9.85438 44.2135 9.80083L47.5963 9.61396C48.5011 9.56408 49.4062 9.70562 50.2526 10.0293C51.099 10.353 51.8676 10.8516 52.5082 11.4926C53.1488 12.1335 53.6471 12.9024 53.9704 13.7489C54.2936 14.5955 54.4347 15.5007 54.3844 16.4055L54.1976 19.7852C54.1445 20.7496 54.3089 21.7136 54.6787 22.6059C55.0484 23.4982 55.614 24.2959 56.3336 24.9401L58.853 27.1954C59.5284 27.7998 60.0688 28.5399 60.4388 29.3674C60.8088 30.1948 61 31.0911 61 31.9975C61 32.9039 60.8088 33.8001 60.4388 34.6276C60.0688 35.4551 59.5284 36.1952 58.853 36.7996L56.3336 39.0549C55.6135 39.6994 55.0477 40.4977 54.678 41.3906C54.3082 42.2834 54.144 43.2481 54.1976 44.213L54.3844 47.5959C54.4343 48.5007 54.2928 49.4059 53.9691 50.2523C53.6454 51.0987 53.1468 51.8673 52.5059 52.508C51.865 53.1486 51.0961 53.6468 50.2496 53.9701C49.4031 54.2934 48.4979 54.4345 47.5931 54.3842L44.2135 54.1974C43.2491 54.1443 42.2852 54.3087 41.3929 54.6785C40.5007 55.0482 39.703 55.6138 39.0588 56.3334L36.8036 58.8529C36.1992 59.5284 35.4591 60.0688 34.6317 60.4388C33.8042 60.8088 32.908 61 32.0016 61C31.0952 61 30.199 60.8088 29.3716 60.4388C28.5441 60.0688 27.804 59.5284 27.1996 58.8529L24.9445 56.3334C24.2999 55.6134 23.5017 55.0475 22.6088 54.6778C21.716 54.308 20.7514 54.1438 19.7865 54.1974L16.4037 54.3842C15.4989 54.4341 14.5938 54.2926 13.7474 53.9689C12.901 53.6452 12.1324 53.1466 11.4918 52.5056C10.8512 51.8647 10.3529 51.0958 10.0296 50.2493C9.70635 49.4027 9.56525 48.4975 9.61556 47.5927L9.80242 44.213C9.85547 43.2486 9.69105 42.2846 9.32133 41.3923C8.9516 40.5 8.38602 39.7023 7.66642 39.0581L5.14704 36.8028C4.47155 36.1984 3.93117 35.4583 3.5612 34.6308C3.19123 33.8034 3 32.9071 3 32.0007C3 31.0943 3.19123 30.1981 3.5612 29.3706C3.93117 28.5431 4.47155 27.803 5.14704 27.1986L7.66642 24.9433C8.38646 24.2988 8.9523 23.5005 9.32204 22.6076C9.69178 21.7147 9.85596 20.7501 9.80242 19.7852L9.61556 16.4023C9.56615 15.4977 9.70803 14.5929 10.0319 13.7469C10.3558 12.9009 10.8545 12.1327 11.4954 11.4924C12.1362 10.8521 12.9049 10.3542 13.7512 10.0311C14.5975 9.70794 15.5024 9.56692 16.4069 9.61718L19.7865 9.80405C20.7509 9.85711 21.7148 9.69269 22.6071 9.32295C23.4993 8.95321 24.297 8.38761 24.9412 7.66799L27.1996 5.14531Z" stroke="white" stroke-width="5"/>
<path d="M23.9453 23.9448H23.9775V23.977H23.9453V23.9448ZM40.0539 40.0539H40.0861V40.0861H40.0539V40.0539Z" stroke="white" stroke-width="5" stroke-linejoin="round"/>
<path d="M41.6662 22.3335L22.3359 41.6644" stroke="white" stroke-width="5" stroke-linecap="round" stroke-linejoin="round"/>
</g>
</svg>
