<svg width="220" height="62" viewBox="0 0 220 62" fill="none" xmlns="http://www.w3.org/2000/svg">
<path d="M0 62V0H9.06773V54.071H41.2964V62H0Z" fill="black" fill-opacity="0.8"/>
<path d="M46.1853 62L66.8335 0H81.8008L102.886 62H93.1627L87.2632 43.4991H61.6988L55.7993 62H46.1853ZM74.481 3.85435L64.1023 36.2309H84.8598L74.481 3.85435Z" fill="black" fill-opacity="0.8"/>
<path d="M109.452 62L130.1 0H145.067L166.153 62H156.429L150.53 43.4991H124.966L119.066 62H109.452ZM137.748 3.85435L127.369 36.2309H148.126L137.748 3.85435Z" fill="black" fill-opacity="0.8"/>
<path d="M210.058 0H220L199.024 62H183.838L162.862 0H172.695L191.377 57.9254L210.058 0Z" fill="black" fill-opacity="0.8"/>
</svg>
